<?xml version="1.0" encoding="UTF-8"?>
<svg width="124px" height="33px" viewBox="0 0 124 33" version="1.1" xmlns="http://www.w3.org/2000/svg" xmlns:xlink="http://www.w3.org/1999/xlink">
    <g stroke="none" stroke-width="1" fill="none" fill-rule="evenodd">
        <path d="M46.211,6.749h-6.839c-0.468,0-0.866,0.34-0.939,0.802l-2.766,17.537c-0.055,0.346,0.213,0.658,0.564,0.658h3.265c0.468,0,0.866-0.34,0.939-0.803l0.746-4.73c0.072-0.463,0.471-0.803,0.938-0.803h2.165c4.505,0,7.105-2.18,7.784-6.5c0.306-1.89,0.013-3.375-0.872-4.415C50.224,7.353,48.5,6.749,46.211,6.749z M47,13.154c-0.374,2.454-2.249,2.454-4.062,2.454h-1.032l0.724-4.583c0.043-0.277,0.283-0.481,0.563-0.481h0.473c1.235,0,2.4,0,3.002,0.704C47.027,11.668,47.137,12.292,47,13.154z" fill="#253B80"/>
        <path d="M94.992,6.749h-6.84c-0.467,0-0.865,0.34-0.938,0.802l-2.766,17.537c-0.055,0.346,0.213,0.658,0.564,0.658h3.51c0.326,0,0.605-0.238,0.656-0.562l0.785-4.971c0.072-0.463,0.471-0.803,0.938-0.803h2.164c4.506,0,7.105-2.18,7.785-6.5c0.307-1.89,0.012-3.375-0.873-4.415C98.805,7.353,97.08,6.749,94.992,6.749z M95.781,13.154c-0.373,2.454-2.248,2.454-4.062,2.454h-1.031l0.725-4.583c0.043-0.277,0.281-0.481,0.562-0.481h0.473c1.234,0,2.4,0,3.002,0.704C95.809,11.668,95.918,12.292,95.781,13.154z" fill="#253B80"/>
        <path d="M7.266,29.154l0.523-3.322l-1.165-0.027H1.061L4.927,1.292C5.022,0.806,5.451,0.466,5.948,0.466h10.38c3.114,0,5.263,0.648,6.385,1.927c0.526,0.6,0.861,1.227,1.023,1.917c0.17,0.724,0.173,1.589,0.007,2.644l-0.012,0.077v0.676l0.526,0.298c0.443,0.235,0.795,0.504,1.065,0.812c0.45,0.513,0.741,1.165,0.864,1.938c0.127,0.795,0.085,1.741-0.123,2.812c-0.24,1.232-0.628,2.305-1.152,3.183c-0.482,0.809-1.096,1.48-1.825,2c-0.696,0.494-1.523,0.869-2.458,1.109c-0.906,0.236-1.939,0.355-3.072,0.355h-0.73c-0.522,0-1.029,0.188-1.427,0.525c-0.399,0.344-0.663,0.814-0.744,1.328l-0.055,0.299l-0.924,5.855l-0.042,0.215c-0.011,0.068-0.03,0.102-0.058,0.125c-0.025,0.021-0.061,0.035-0.096,0.035L7.266,29.154z" fill="#179BD7"/>
        <path d="M23.048,7.667c-0.028,0.179-0.06,0.362-0.096,0.55c-1.237,6.351-5.469,8.545-10.874,8.545H9.326c-0.661,0-1.218,0.48-1.321,1.132L4.596,26.924l-0.399,2.533c-0.067,0.428,0.263,0.814,0.695,0.814h4.881c0.578,0,1.069-0.42,1.16-0.99l0.048-0.248l0.919-5.832l0.059-0.32c0.09-0.572,0.582-0.992,1.16-0.992h0.73c4.729,0,8.431-1.92,9.513-7.476c0.452-2.321,0.218-4.259-0.978-5.622C23.042,7.688,23.045,7.677,23.048,7.667z" fill="#222D65"/>
        <path d="M21.754,7.151c-0.189-0.055-0.384-0.105-0.584-0.15c-0.201-0.044-0.407-0.083-0.619-0.117c-0.742-0.12-1.555-0.177-2.426-0.177h-7.352c-0.181,0-0.353,0.032-0.509,0.09c-0.17,0.063-0.323,0.153-0.451,0.267c-0.132,0.117-0.238,0.257-0.312,0.417c-0.079,0.164-0.125,0.339-0.125,0.53v0.73l-1.809,11.471l-0.045,0.289c0.103-0.652,0.66-1.132,1.321-1.132h2.752c5.405,0,9.637-2.195,10.874-8.545c0.037-0.188,0.068-0.371,0.096-0.55c-0.313-0.166-0.652-0.308-1.017-0.429C21.941,7.208,21.847,7.179,21.754,7.151z" fill="#253B80"/>
    </g>
</svg> 